
<svg xmlns="http://www.w3.org/2000/svg" xmlns:xlink="http://www.w3.org/1999/xlink" viewBox="0 0 1292 678.12"><defs><style>.cls-1{isolation:isolate;}.cls-2{mix-blend-mode:multiply;}.cls-3{fill:#7700a2;}.cls-4{fill:url(#linear-gradient);}.cls-5{fill:url(#linear-gradient-2);}.cls-6{fill:url(#linear-gradient-3);}.cls-7{fill:url(#linear-gradient-4);}.cls-8{fill:url(#linear-gradient-5);}</style><linearGradient id="linear-gradient" x1="7507.27" y1="-2520.34" x2="7974.14" y2="-2520.34" gradientTransform="translate(6524.11 -5097.46) rotate(155.38)" gradientUnits="userSpaceOnUse"><stop offset="0" stop-color="#e5f1f1"/><stop offset="0.14" stop-color="#dcf0ee"/><stop offset="0.36" stop-color="#c2ece6"/><stop offset="0.65" stop-color="#99e6d8"/><stop offset="0.99" stop-color="#60ddc5"/><stop offset="0.99" stop-color="#5fddc5"/></linearGradient><linearGradient id="linear-gradient-2" x1="90.33" y1="-958.08" x2="760.54" y2="-958.08" gradientTransform="translate(946.23 1314.64) rotate(-21.25)" gradientUnits="userSpaceOnUse"><stop offset="0" stop-color="#5fddc5"/><stop offset="0.17" stop-color="#68dfc8"/><stop offset="0.46" stop-color="#82e5d0"/><stop offset="0.82" stop-color="#abefdc"/><stop offset="0.99" stop-color="#c1f4e3"/></linearGradient><linearGradient id="linear-gradient-3" x1="630.45" y1="244.38" x2="1291.15" y2="244.38" gradientUnits="userSpaceOnUse"><stop offset="0" stop-color="#5fddc5"/><stop offset="0.13" stop-color="#68ddbe"/><stop offset="0.33" stop-color="#82dbaa"/><stop offset="0.6" stop-color="#abd98a"/><stop offset="0.91" stop-color="#e4d75f"/><stop offset="0.99" stop-color="#f5d652"/></linearGradient><linearGradient id="linear-gradient-4" x1="7006.64" y1="-3722.9" x2="7352.26" y2="-3722.9" gradientTransform="translate(7279.6 -3348.5) rotate(178.89)" gradientUnits="userSpaceOnUse"><stop offset="0" stop-color="#cb84de"/><stop offset="0.16" stop-color="#c288e0"/><stop offset="0.43" stop-color="#a892e7"/><stop offset="0.77" stop-color="#7fa3f1"/><stop offset="0.99" stop-color="#60b0f9"/></linearGradient><linearGradient id="linear-gradient-5" x1="7420.08" y1="-657.23" x2="7828.42" y2="-657.23" gradientTransform="translate(5044.19 -5404.42) rotate(134.3)" gradientUnits="userSpaceOnUse"><stop offset="0" stop-color="#ec8580"/><stop offset="0.2" stop-color="#ed8e7b"/><stop offset="0.53" stop-color="#f0a86c"/><stop offset="0.95" stop-color="#f4d155"/><stop offset="0.99" stop-color="#f5d652"/></linearGradient></defs><title>backsplash</title><g class="cls-1"><g id="Layer_2" data-name="Layer 2"><g id="Layer_1-2" data-name="Layer 1"><g class="cls-2"><path class="cls-3" d="M559.26,235.6c-47.94-17.83-97.83-22.11-150.83.25-49.19,20.75-93,77.35-87.95,137.61,3.3,39.06,25.72,71.06,50.25,96.42,34.35,35.53,75.48,63.29,121,73.16s95.74.55,135-31.67,65.54-88.52,61.57-143.27c-3.82-52.74-32.59-82.38-69.48-103.75C599.28,253,579.44,243.1,559.26,235.6Z"/></g><g class="cls-2"><path class="cls-4" d="M669.11,505.84c57.59-44.72,101.68-108.23,84.53-171.48-19.14-70.6-101.85-118.43-165.48-95.71-32.24,11.51-57,37-85.66,55.55-30.05,19.4-64.39,31-96.7,46.43s-63.74,35.68-82.08,67.22-20.37,76.56,3.35,107.57c23.36,30.54,63.14,39.38,99.15,45,37.49,5.86,75.51,10.72,112.38,6.05C576.63,561.66,626.55,538.88,669.11,505.84Z"/></g><g class="cls-2"><path class="cls-5" d="M923.76,62.45C841.38,104.67,769.35,160,736.84,200.91c-38,47.8-67.08,107.94-57.7,168.25,10.79,69.43,72,123.23,139.43,142.88,86.59,25.23,182.53,2.12,257.78-47.59s131.77-123.6,175.33-202.57c34.82-63.13,60.9-145.59,17.92-203.5C1199.54-36,1049.59-2,923.76,62.45Z"/></g><g class="cls-2"><path class="cls-6" d="M752.38,137.59C683,190.59,609,264.28,636.24,343.06c13.9,40.21,52.31,66.76,91.21,84,87.74,38.87,184.93,43,279.24,35,67.17-5.69,196.22-4.83,246.56-55.66,102.48-103.46-24.66-298.94-123.64-352.08-107.83-57.89-217-28.55-312.87,37.42C798.49,104.29,775.7,119.77,752.38,137.59Z"/></g><g class="cls-2"><g class="cls-2"><path class="cls-7" d="M271,645.46c34.12-8.63,63.11-33.17,72.47-73.87,8.15-35.45-.35-72.58-12.14-107-11.05-32.25-27.08-65.83-57.26-81.69-32.79-17.24-72.79-8.78-108.11,2.39A848.51,848.51,0,0,0,49.56,431.81C25.34,443.63-1.82,462.54.1,489.42c1.33,18.67,17.1,33.28,33.95,41.43s35.59,11.86,52.28,20.33c28,14.2,47.59,40.22,69.72,62.44C186.84,644.54,232.25,655.27,271,645.46Z"/></g><g class="cls-2"><path class="cls-8" d="M322.64,564.63c38.59-27.18,76.3-62.23,73.05-110.27-6.81-45.71-54.84-87.1-101-98.9s-89.6-.28-127.14,16.78a372.78,372.78,0,0,0-120,86.29c-23.07,25-43.13,54.53-46.67,91.28s13,82,47.68,107.59C95,691.69,152,678.56,190.16,653.09c30.25-20.18,59.91-40.71,90.55-60.77C293.37,584,308.07,574.89,322.64,564.63Z"/></g></g></g></g></g></svg>